<?xml version="1.0" encoding="utf-8"?>
<!-- Generator: Adobe Illustrator 18.1.0, SVG Export Plug-In . SVG Version: 6.00 Build 0)  -->
<svg version="1.1" id="Layer_1" xmlns="http://www.w3.org/2000/svg" xmlns:xlink="http://www.w3.org/1999/xlink" x="0px" y="0px"
	 viewBox="-229 231 40 40" enable-background="new -229 231 40 40" xml:space="preserve">
<path fill="#F0F0F0" d="M-212.8,246.5h-3.8v2.9h3.5c0.6,0,1.1-0.2,1.1-1.5C-211.8,246.5-212.8,246.5-212.8,246.5z M-212.8,251.4
	h-3.8v3.5h3.6c0.5,0,1.5-0.2,1.5-1.7C-211.4,251.4-212.7,251.4-212.8,251.4z M-203.1,249.4c-2,0-2.3,2-2.3,2h4.2
	C-201.2,251.3-201.2,249.4-203.1,249.4z M-203.1,249.4c-2,0-2.3,2-2.3,2h4.2C-201.2,251.3-201.2,249.4-203.1,249.4z M-212.8,251.4
	h-3.8v3.5h3.6c0.5,0,1.5-0.2,1.5-1.7C-211.4,251.4-212.7,251.4-212.8,251.4z M-211.8,247.8c0-1.3-0.9-1.3-0.9-1.3h-3.8v2.9h3.5
	C-212.4,249.4-211.8,249.2-211.8,247.8z M-209,231.9c-10.4,0-18.9,8.4-18.9,18.9c0,10.4,8.4,18.9,18.9,18.9
	c10.4,0,18.9-8.4,18.9-18.9C-190.2,240.4-198.6,231.9-209,231.9z M-206,245h5.3v1.6h-5.3V245z M-208.7,253.3c0,3.9-4.1,3.8-4.1,3.8
	h-6.7v-12.9h6.7c2,0,3.7,1.1,3.7,3.5c0,2.3-2,2.5-2,2.5C-208.5,250.1-208.7,253.3-208.7,253.3z M-198.7,253.1h-6.7
	c0,2.4,2.3,2.3,2.3,2.3c2.1,0,2.1-1.4,2.1-1.4h2.3c0,3.7-4.4,3.4-4.4,3.4c-5.3,0-5-4.9-5-4.9c0,0,0-5,5-5
	C-197.9,247.5-198.7,253.1-198.7,253.1z M-203.1,249.4c-2,0-2.3,2-2.3,2h4.2C-201.2,251.3-201.2,249.4-203.1,249.4z M-212.8,251.4
	h-3.8v3.5h3.6c0.5,0,1.5-0.2,1.5-1.7C-211.4,251.4-212.7,251.4-212.8,251.4z M-211.8,247.8c0-1.3-0.9-1.3-0.9-1.3h-3.8v2.9h3.5
	C-212.4,249.4-211.8,249.2-211.8,247.8z M-212.8,246.5h-3.8v2.9h3.5c0.6,0,1.1-0.2,1.1-1.5C-211.8,246.5-212.8,246.5-212.8,246.5z
	 M-212.8,251.4h-3.8v3.5h3.6c0.5,0,1.5-0.2,1.5-1.7C-211.4,251.4-212.7,251.4-212.8,251.4z M-212.8,251.4h-3.8v3.5h3.6
	c0.5,0,1.5-0.2,1.5-1.7C-211.4,251.4-212.7,251.4-212.8,251.4z M-212.8,246.5h-3.8v2.9h3.5c0.6,0,1.1-0.2,1.1-1.5
	C-211.8,246.5-212.8,246.5-212.8,246.5z"/>
</svg>
