<?xml version="1.0" encoding="utf-8"?>
<!-- Generator: Adobe Illustrator 18.1.0, SVG Export Plug-In . SVG Version: 6.00 Build 0)  -->
<svg version="1.1" id="Layer_1" xmlns="http://www.w3.org/2000/svg" xmlns:xlink="http://www.w3.org/1999/xlink" x="0px" y="0px"
	 viewBox="21.8 464.8 748.4 748.4" enable-background="new 21.8 464.8 748.4 748.4" xml:space="preserve">
<path fill="#C9E6CE" d="M320.8,753.9h-75.2v57.4h69.3c11.9,0,21.8-4,21.8-29.7C340.6,753.9,320.8,753.9,320.8,753.9z M320.8,850.9
	h-75.2v69.3h71.3c9.9,0,29.7-4,29.7-33.7C348.5,850.9,322.7,850.9,320.8,850.9z M512.8,811.3c-39.6,0-45.5,39.6-45.5,39.6h83.2
	C550.4,848.9,550.4,811.3,512.8,811.3z M512.8,811.3c-39.6,0-45.5,39.6-45.5,39.6h83.2C550.4,848.9,550.4,811.3,512.8,811.3z
	 M320.8,850.9h-75.2v69.3h71.3c9.9,0,29.7-4,29.7-33.7C348.5,850.9,322.7,850.9,320.8,850.9z M340.6,779.6
	c0-25.7-17.8-25.7-17.8-25.7h-75.2v57.4h69.3C328.7,811.3,340.6,807.4,340.6,779.6z M396,464.8C190.1,464.8,21.8,631.1,21.8,839
	c0,205.9,166.3,374.2,374.2,374.2c205.9,0,374.2-166.3,374.2-374.2C768.2,633.1,601.9,464.8,396,464.8z M455.4,724.2h104.9v31.7
	H455.4V724.2z M401.9,888.5c0,77.2-81.2,75.2-81.2,75.2H188.1V708.4h132.7c39.6,0,73.3,21.8,73.3,69.3c0,45.5-39.6,49.5-39.6,49.5
	C405.9,825.2,401.9,888.5,401.9,888.5z M599.9,884.6H467.3c0,47.5,45.5,45.5,45.5,45.5c41.6,0,41.6-27.7,41.6-27.7h45.5
	c0,73.3-87.1,67.3-87.1,67.3c-104.9,0-99-97-99-97s0-99,99-99C615.8,773.7,599.9,884.6,599.9,884.6z M512.8,811.3
	c-39.6,0-45.5,39.6-45.5,39.6h83.2C550.4,848.9,550.4,811.3,512.8,811.3z M320.8,850.9h-75.2v69.3h71.3c9.9,0,29.7-4,29.7-33.7
	C348.5,850.9,322.7,850.9,320.8,850.9z M340.6,779.6c0-25.7-17.8-25.7-17.8-25.7h-75.2v57.4h69.3
	C328.7,811.3,340.6,807.4,340.6,779.6z M320.8,753.9h-75.2v57.4h69.3c11.9,0,21.8-4,21.8-29.7C340.6,753.9,320.8,753.9,320.8,753.9z
	 M320.8,850.9h-75.2v69.3h71.3c9.9,0,29.7-4,29.7-33.7C348.5,850.9,322.7,850.9,320.8,850.9z M320.8,850.9h-75.2v69.3h71.3
	c9.9,0,29.7-4,29.7-33.7C348.5,850.9,322.7,850.9,320.8,850.9z M320.8,753.9h-75.2v57.4h69.3c11.9,0,21.8-4,21.8-29.7
	C340.6,753.9,320.8,753.9,320.8,753.9z"/>
</svg>
