<?xml version="1.0" encoding="utf-8"?>
<!-- Generator: Adobe Illustrator 18.1.0, SVG Export Plug-In . SVG Version: 6.00 Build 0)  -->
<svg version="1.1" id="Layer_1" xmlns="http://www.w3.org/2000/svg" xmlns:xlink="http://www.w3.org/1999/xlink" x="0px" y="0px"
	 viewBox="-229 231 40 40" enable-background="new -229 231 40 40" xml:space="preserve">
<path fill="#F0F0F0" d="M-209,231.9c-10.4,0-18.9,8.4-18.9,18.9c0,10.4,8.4,18.9,18.9,18.9c10.4,0,18.9-8.4,18.9-18.9
	C-190.2,240.4-198.6,231.9-209,231.9z M-200.5,243.8l-7.5,7.5c-0.6,0.5-1.5,0.5-2,0l-7.4-7.5H-200.5z M-199.1,256.5
	c0,0.8-0.7,1.5-1.5,1.5h-16.9c-0.8,0-1.5-0.7-1.5-1.5v-12.6l8.8,9.1c0.5,0.6,1.6,0.5,2.2,0l8.8-8.8V256.5z"/>
</svg>
