<?xml version="1.0" encoding="utf-8"?>
<!-- Generator: Adobe Illustrator 18.1.0, SVG Export Plug-In . SVG Version: 6.00 Build 0)  -->
<svg version="1.1" id="Layer_1" xmlns="http://www.w3.org/2000/svg" xmlns:xlink="http://www.w3.org/1999/xlink" x="0px" y="0px"
	 viewBox="21.8 464.8 748.4 748.4" enable-background="new 21.8 464.8 748.4 748.4" xml:space="preserve">
<path fill="#90D2C1" d="M395.8,464.8C189.9,464.8,21.6,631.1,21.6,839c0,205.9,166.3,374.2,374.2,374.2
	c205.9,0,374.2-166.3,374.2-374.2C768,633.1,601.7,464.8,395.8,464.8z M564.1,700.4L415.6,848.9c-11.9,9.9-29.7,9.9-39.6,0
	L229.5,700.4H564.1z M591.8,951.9c0,15.8-13.9,29.7-29.7,29.7H227.5c-15.8,0-29.7-13.9-29.7-29.7V702.4L372,882.6
	c9.9,11.9,31.7,9.9,43.6,0l174.2-174.2v243.5H591.8z"/>
</svg>
