<?xml version="1.0" encoding="utf-8"?>
<!-- Generator: Adobe Illustrator 18.1.0, SVG Export Plug-In . SVG Version: 6.00 Build 0)  -->
<svg version="1.1" id="Layer_1" xmlns="http://www.w3.org/2000/svg" xmlns:xlink="http://www.w3.org/1999/xlink" x="0px" y="0px"
	 viewBox="-229 231 40 40" enable-background="new -229 231 40 40" xml:space="preserve">
<path fill="#F0F0F0" d="M-209.2,231.9c-10.4,0-18.9,8.5-18.9,18.9c0,10.4,8.5,18.9,18.9,18.9c10.4,0,18.9-8.5,18.9-18.9
	C-190.3,240.4-198.8,231.9-209.2,231.9z M-203.1,241.2c-0.6-0.1-0.7-0.1-1.1-0.1c-2.8,0-2.8,1.5-2.8,2.4v2.2h3.5v3.9h-3.5v14.8h-5.4
	v-14.8h-2.8v-3.9h2.8v-2.5c0-3.3,1.1-6,6.4-6c0.4,0,1.4,0,3,0.2V241.2z"/>
</svg>
