<?xml version="1.0" encoding="utf-8"?>
<!-- Generator: Adobe Illustrator 18.1.0, SVG Export Plug-In . SVG Version: 6.00 Build 0)  -->
<svg version="1.1" id="Layer_1" xmlns="http://www.w3.org/2000/svg" xmlns:xlink="http://www.w3.org/1999/xlink" x="0px" y="0px"
	 viewBox="-229 231 40 40" enable-background="new -229 231 40 40" xml:space="preserve">
<path fill="#F0F0F0" d="M-209,231.9c-10.4,0-18.9,8.4-18.9,18.9c0,10.4,8.4,18.9,18.9,18.9c10.4,0,18.9-8.4,18.9-18.9
	C-190.2,240.4-198.6,231.9-209,231.9z M-199,258.4c0,1.5-1.2,2.6-2.6,2.6h-15.2c-1.4,0-2.6-1.2-2.6-2.6v-15.2c0-1.4,1.2-2.6,2.6-2.6
	h15.2c1.5,0,2.6,1.2,2.6,2.6V258.4z M-202.8,251c0,3.4-2.8,6.2-6.4,6.2c-3.5,0-6.4-2.8-6.4-6.2c0-0.6,0.1-1.2,0.3-1.8h-1.9v8.7
	c0,0.5,0.4,0.8,0.8,0.8h14.3c0.5,0,0.8-0.4,0.8-0.8v-8.7h-1.8C-202.9,249.8-202.8,250.3-202.8,251z M-204.5,246.9h2.3
	c0.5,0,0.9-0.4,0.9-0.9v-2.2c0-0.5-0.4-0.9-0.9-0.9h-2.3c-0.5,0-0.9,0.4-0.9,0.9v2.2C-205.5,246.4-205,246.9-204.5,246.9z
	 M-209.2,254.7c2.3,0,4.1-1.8,4.1-4c0-2.2-1.8-4-4.1-4c-2.3,0-4.1,1.8-4.1,4C-213.3,252.9-211.5,254.7-209.2,254.7z"/>
</svg>
