<?xml version="1.0" encoding="utf-8"?>
<!-- Generator: Adobe Illustrator 18.1.0, SVG Export Plug-In . SVG Version: 6.00 Build 0)  -->
<svg version="1.1" id="Layer_1" xmlns="http://www.w3.org/2000/svg" xmlns:xlink="http://www.w3.org/1999/xlink" x="0px" y="0px"
	 viewBox="0 0 75 75" enable-background="new 0 0 75 75" xml:space="preserve">
<g>
	<path fill="#4ABDB5" d="M40.3,63.8c0.5,0.6,1.1,1.2,1.7,1.9c0.4,0.4,0.8,0.7,1.2,1.1L40.3,63.8z"/>
	<path fill="#4ABDB5" d="M27,37L27,37c0,0,19.5,20.6,22,22.6c0,0,4.1,3.7,6.6,4.8c3.8,1.7,8.2,2.3,12.6,2.3c1.6,0,3.1-0.1,4.5-0.2
		v8.1c-1.3,0-2.8,0.1-4.5,0.1c-12.3,0-20-3.3-25.1-7.9l-2.8-2.9L14.6,37c0,0,26.8-27.4,27.4-28c0.4-0.4,0.8-0.8,1.2-1.1
		c5.1-4.6,12.7-7.9,25.1-7.9c1.7,0,3.2,0,4.5,0.1v8.1c-1.4-0.1-2.9-0.2-4.5-0.2c-4.4,0-8.8,0.6-12.6,2.3C53.1,11.4,49,15,49,15
		C46.5,17,27,37,27,37z"/>
</g>
<polygon fill="#4ABDB5" points="72.8,59.5 72.3,59.2 57.2,48.8 72.3,38.5 72.7,38.2 "/>
<g>
	<path fill="#4ABDB5" d="M2.4,0v74.6h10.2V0H2.4z"/>
</g>
</svg>
