<?xml version="1.0" encoding="utf-8"?>
<!-- Generator: Adobe Illustrator 18.1.0, SVG Export Plug-In . SVG Version: 6.00 Build 0)  -->
<svg version="1.1" id="Layer_1" xmlns="http://www.w3.org/2000/svg" xmlns:xlink="http://www.w3.org/1999/xlink" x="0px" y="0px"
	 viewBox="-229 231 40 40" enable-background="new -229 231 40 40" xml:space="preserve">
<path fill="#F0F0F0" d="M-209,231.9c-10.4,0-18.9,8.4-18.9,18.9c0,10.4,8.4,18.9,18.9,18.9c10.4,0,18.9-8.4,18.9-18.9
	C-190.2,240.4-198.6,231.9-209,231.9z M-214.4,259.6h-4.1v-13h4.1V259.6z M-216.4,244.7c-1.3,0-2.4-1-2.4-2.3s1-2.4,2.4-2.4
	c1.3,0,2.3,1.1,2.3,2.4S-215.1,244.7-216.4,244.7z M-199.2,259.6h-4.1v-6.3c0-1.5,0-3.5-2.1-3.5c-2.1,0-2.4,1.6-2.4,3.3v6.5h-4v-13
	h3.9v1.8h0c0.5-1,1.9-2.1,3.8-2.1c4.1,0,4.9,2.7,4.9,6.2V259.6z"/>
</svg>
