<?xml version="1.0" encoding="utf-8"?>
<!-- Generator: Adobe Illustrator 18.1.0, SVG Export Plug-In . SVG Version: 6.00 Build 0)  -->
<svg version="1.1" id="Layer_1" xmlns="http://www.w3.org/2000/svg" xmlns:xlink="http://www.w3.org/1999/xlink" x="0px" y="0px"
	 viewBox="21.8 464.8 748.4 748.4" enable-background="new 21.8 464.8 748.4 748.4" xml:space="preserve">
<path fill="#339999" d="M395.8,464.8C189.9,464.8,21.6,631.1,21.6,839c0,205.9,166.3,374.2,374.2,374.2
	c205.9,0,374.2-166.3,374.2-374.2C768,633.1,601.7,464.8,395.8,464.8z M288.9,1013.3h-81.2V755.9h81.2V1013.3z M249.3,718.3
	c-25.7,0-47.5-19.8-47.5-45.5c0-25.7,19.8-47.5,47.5-47.5c25.7,0,45.5,21.8,45.5,47.5C294.8,698.5,275,718.3,249.3,718.3z
	 M589.8,1013.3h-81.2V888.5c0-29.7,0-69.3-41.6-69.3s-47.5,31.7-47.5,65.3v128.7h-79.2V755.9h77.2v35.6l0,0
	c9.9-19.8,37.6-41.6,75.2-41.6c81.2,0,97,53.5,97,122.8L589.8,1013.3L589.8,1013.3z"/>
</svg>
