<?xml version="1.0" encoding="utf-8"?>
<!-- Generator: Adobe Illustrator 18.1.0, SVG Export Plug-In . SVG Version: 6.00 Build 0)  -->
<svg version="1.1" id="Layer_1" xmlns="http://www.w3.org/2000/svg" xmlns:xlink="http://www.w3.org/1999/xlink" x="0px" y="0px"
	 viewBox="-229 231 40 40" enable-background="new -229 231 40 40" xml:space="preserve">
<g>
	<path fill="#F0F0F0" d="M-209,231.9c-10.5,0-19,8.5-19,19c0,7.8,4.7,14.4,11.4,17.4c-0.1-1.3,0-2.9,0.3-4.4
		c0.4-1.5,2.4-10.3,2.4-10.3s-0.6-1.2-0.6-3c0-2.8,1.6-4.9,3.7-4.9c1.7,0,2.6,1.3,2.6,2.8c0,1.7-1.1,4.3-1.7,6.7c-0.5,2,1,3.7,3,3.7
		c3.6,0,6-4.6,6-10.1c0-4.2-2.8-7.3-7.9-7.3c-5.8,0-9.3,4.3-9.3,9.1c0,1.7,0.5,2.8,1.3,3.7c0.3,0.4,0.4,0.6,0.3,1.1
		c-0.1,0.4-0.3,1.2-0.4,1.5c-0.1,0.5-0.5,0.7-0.9,0.5c-2.7-1.1-3.9-4-3.9-7.2c0-5.4,4.5-11.9,13.6-11.9c7.2,0,12,5.2,12,10.9
		c0,7.4-4.1,13-10.2,13c-2,0-4-1.1-4.6-2.4c0,0-1.1,4.4-1.3,5.2c-0.4,1.5-1.2,2.9-1.9,4.1c1.7,0.5,3.5,0.8,5.4,0.8
		c10.5,0,19-8.5,19-19C-190.1,240.4-198.5,231.9-209,231.9z"/>
</g>
</svg>
