<?xml version="1.0" encoding="utf-8"?>
<!-- Generator: Adobe Illustrator 18.1.0, SVG Export Plug-In . SVG Version: 6.00 Build 0)  -->
<svg version="1.1" id="Layer_1" xmlns="http://www.w3.org/2000/svg" xmlns:xlink="http://www.w3.org/1999/xlink" x="0px" y="0px"
	 viewBox="21.8 464.8 748.4 748.4" enable-background="new 21.8 464.8 748.4 748.4" xml:space="preserve">
<path fill="#49BDB5" d="M395.8,464.8C189.9,464.8,21.6,631.1,21.6,839c0,205.9,166.3,374.2,374.2,374.2
	c205.9,0,374.2-166.3,374.2-374.2C768,633.1,601.7,464.8,395.8,464.8z M601.7,779.6c11.9,120.8-85.1,287.1-273.2,289.1
	c-51.5,0-99-13.9-140.6-39.6c0,0,71.3,4,136.6-43.6c-41.6-2-77.2-29.7-91.1-69.3c7.9,2,29.7,5.9,47.5,0
	c-43.6-9.9-77.2-47.5-79.2-93.1c11.9,5.9,25.7,7.9,37.6,7.9c-23.8-17.8-57.4-71.3-25.7-130.7c45.5,59.4,116.8,97,198,99
	c0,0-2-15.8-2-19.8c0-47.5,37.6-97,97-97c27.7,0,53.5,11.9,71.3,31.7c27.7-5.9,55.4-19.8,61.4-23.8c-7.9,21.8-23.8,41.6-43.6,51.5
	c0,0,0,0,0,2c17.8-2,37.6-7.9,53.5-13.9C639.3,753.9,623.5,769.7,601.7,779.6z"/>
</svg>
