<?xml version="1.0" encoding="utf-8"?>
<!-- Generator: Adobe Illustrator 18.1.0, SVG Export Plug-In . SVG Version: 6.00 Build 0)  -->
<svg version="1.1" id="Layer_1" xmlns="http://www.w3.org/2000/svg" xmlns:xlink="http://www.w3.org/1999/xlink" x="0px" y="0px"
	 viewBox="-229 231 40 40" enable-background="new -229 231 40 40" xml:space="preserve">
<path fill="#F0F0F0" d="M-209,231.9c-10.4,0-18.9,8.4-18.9,18.9c0,10.4,8.4,18.9,18.9,18.9c10.4,0,18.9-8.4,18.9-18.9
	C-190.2,240.4-198.6,231.9-209,231.9z M-198.6,247.8c0.6,6.1-4.3,14.5-13.8,14.6c-2.6,0-5-0.7-7.1-2c0,0,3.6,0.2,6.9-2.2
	c-2.1-0.1-3.9-1.5-4.6-3.5c0.4,0.1,1.5,0.3,2.4,0c-2.2-0.5-3.9-2.4-4-4.7c0.6,0.3,1.3,0.4,1.9,0.4c-1.2-0.9-2.9-3.6-1.3-6.6
	c2.3,3,5.9,4.9,10,5c0,0-0.1-0.8-0.1-1c0-2.4,1.9-4.9,4.9-4.9c1.4,0,2.7,0.6,3.6,1.6c1.4-0.3,2.8-1,3.1-1.2
	c-0.4,1.1-1.2,2.1-2.2,2.6c0,0,0,0,0,0.1c0.9-0.1,1.9-0.4,2.7-0.7C-196.7,246.5-197.5,247.3-198.6,247.8z"/>
</svg>
